<svg width="53" height="30" viewBox="0 0 53 30" fill="none" xmlns="http://www.w3.org/2000/svg">
<path d="M41.4062 16.6666H11.5938C10.6662 16.6666 9.9375 15.9333 9.9375 14.9999C9.9375 14.0666 10.6662 13.3333 11.5938 13.3333H41.4062C42.3338 13.3333 43.0625 14.0666 43.0625 14.9999C43.0625 15.9333 42.3338 16.6666 41.4062 16.6666Z" fill="#F0EEE9"/>
<path d="M33.125 28.3334C32.9078 28.3361 32.6924 28.293 32.4927 28.2069C32.2931 28.1208 32.1135 27.9936 31.9656 27.8334C31.3031 27.1668 31.3031 26.1334 31.9656 25.4668L42.4 14.9668L31.9656 4.46676C31.3031 3.8001 31.3031 2.76676 31.9656 2.1001C32.6281 1.43343 33.655 1.43343 34.3175 2.1001L45.9113 13.7668C46.5738 14.4334 46.5738 15.4668 45.9113 16.1334L34.3175 27.8001C33.9862 28.1334 33.5556 28.3001 33.1581 28.3001L33.125 28.3334Z" fill="#F0EEE9"/>
</svg>
