<svg width="39" height="22" viewBox="0 0 39 22" fill="none" xmlns="http://www.w3.org/2000/svg">
<path d="M30.4688 12.2223H8.53125C7.84875 12.2223 7.3125 11.6845 7.3125 11.0001C7.3125 10.3156 7.84875 9.77783 8.53125 9.77783H30.4688C31.1513 9.77783 31.6875 10.3156 31.6875 11.0001C31.6875 11.6845 31.1513 12.2223 30.4688 12.2223Z" fill="#F0EEE9"/>
<path d="M24.375 20.7778C24.2152 20.7797 24.0567 20.7481 23.9098 20.685C23.7628 20.6218 23.6307 20.5285 23.5219 20.4111C23.0344 19.9222 23.0344 19.1645 23.5219 18.6756L31.2 10.9756L23.5219 3.27556C23.0344 2.78667 23.0344 2.0289 23.5219 1.54001C24.0094 1.05112 24.765 1.05112 25.2525 1.54001L33.7838 10.0956C34.2713 10.5845 34.2713 11.3422 33.7838 11.8311L25.2525 20.3867C25.0088 20.6311 24.6919 20.7533 24.3994 20.7533L24.375 20.7778Z" fill="#F0EEE9"/>
</svg>
